<?xml version="1.0" encoding="UTF-8" standalone="no"?>
<!-- Generator: Adobe Illustrator 23.1.0, SVG Export Plug-In . SVG Version: 6.00 Build 0)  -->

<svg
   version="1.1"
   id="圖層_1"
   x="0px"
   y="0px"
   viewBox="0 0 50 50"
   style="enable-background:new 0 0 50 50;"
   xml:space="preserve"
   sodipodi:docname="2P.svg"
   inkscape:version="1.1 (c68e22c387, 2021-05-23)"
   inkscape:export-filename="C:\Users\Jesse\Documents\PAIA\TankMan\asset\image\2P.png"
   inkscape:export-xdpi="96"
   inkscape:export-ydpi="96"
   xmlns:inkscape="http://www.inkscape.org/namespaces/inkscape"
   xmlns:sodipodi="http://sodipodi.sourceforge.net/DTD/sodipodi-0.dtd"
   xmlns="http://www.w3.org/2000/svg"
   xmlns:svg="http://www.w3.org/2000/svg"><defs
   id="defs114" /><sodipodi:namedview
   id="namedview112"
   pagecolor="#ffffff"
   bordercolor="#666666"
   borderopacity="1.0"
   inkscape:pageshadow="2"
   inkscape:pageopacity="0.0"
   inkscape:pagecheckerboard="0"
   showgrid="false"
   inkscape:zoom="16.64"
   inkscape:cx="24.969952"
   inkscape:cy="24.969952"
   inkscape:window-width="1920"
   inkscape:window-height="1017"
   inkscape:window-x="-8"
   inkscape:window-y="32"
   inkscape:window-maximized="1"
   inkscape:current-layer="圖層_1" />
<style
   type="text/css"
   id="style2">
	.st0{fill:#535354;}
	.st1{fill:#208FC6;}
	.st2{fill:url(#SVGID_1_);}
	.st3{fill:#444444;}
</style>
<g
   id="g1531"
   transform="matrix(0,-0.99834072,0.99834072,0,-0.17177201,50.168225)"
   inkscape:export-filename="C:\Users\Jesse\Documents\PAIA\TankMan\asset\image\2P.png"
   inkscape:export-xdpi="96"
   inkscape:export-ydpi="96"><g
     id="g1468"><g
       id="g1342"><g
         id="g1281"><g
           id="g1159"><g
             id="g1100"><g
               id="g1042"><g
                 id="g985"><g
                   id="g109">
	<g
   id="g21">
		<g
   id="g10">
			
				<rect
   x="1.66"
   y="2.04"
   transform="matrix(1,-0.0011405,0.0011405,1,-0.0289,0.00733792)"
   class="st0"
   width="9.5200005"
   height="46.560001"
   id="rect4" />
			<g
   id="g8">
				<polygon
   class="st0"
   points="38.29,48.55 38.24,1.8 48.45,1.67 48.51,48.54 "
   id="polygon6" />
			</g>
		</g>
		<polygon
   class="st1"
   points="21.05,46.86 11.31,46.88 11.21,2.11 18.85,2.1 18.88,3.42 30.73,3.4 30.75,2.19 38.14,2.19 38.23,46.84 28.39,46.85 28.4,48.17 21.05,48.18 "
   id="polygon12" />
		
			<linearGradient
   id="SVGID_1_"
   gradientUnits="userSpaceOnUse"
   x1="24.73"
   y1="48.161098"
   x2="24.73"
   y2="8.3087997"
   gradientTransform="matrix(1,-0.00513691,0.00513691,1,-0.1292,0.1289)">
			<stop
   offset="5.586592e-03"
   style="stop-color:#0093FF"
   id="stop14" />
			<stop
   offset="1"
   style="stop-color:#00429F"
   id="stop16" />
		</linearGradient>
		<path
   class="st2"
   d="m 17.17,8.35 0.09,16.84 3.87,-0.02 c 0.12,23.01 0.12,23.01 0.12,23.01 L 28.34,48.14 28.22,25.13 32.21,25.11 32.12,8.27 Z"
   id="path19"
   style="fill:url(#SVGID_1_)" />
	</g>
	<g
   id="g107">
		<path
   d="M 49.93,3.59 C 49.87,3.45 48.47,0.17 45.27,0.18 c -2.56,0 -3.58,0.01 -3.68,0.01 -0.16,0.02 -1.58,0.3 -2.58,1.24 -0.03,0.03 -0.05,0.07 -0.08,0.11 0,0 0,0 0,-0.01 -0.27,-0.34 -0.78,-0.74 -1.62,-0.77 -1.71,-0.06 -6.42,0 -6.62,0 -0.54,0.01 -0.98,0.44 -1,0.98 l -0.04,1.38 c -1.39,0 -2.97,0 -4.56,0 L 19.95,3.13 V 1.78 C 19.95,1.51 19.84,1.26 19.65,1.07 19.46,0.88 19.2,0.78 18.94,0.78 l -5.96,0.01 c -0.01,0 -0.01,0 -0.02,0 -0.7,0 -1.4,0.21 -1.93,0.6 C 11.01,1.36 10.99,1.33 10.97,1.3 9.97,0.36 8.54,0.19 8.38,0.18 8.34,0.18 8.31,0.17 8.27,0.17 c 0,0 -1.03,0.01 -3.57,0.01 -0.01,0 -0.01,0 -0.02,0 C 1.52,0.19 0.13,3.46 0.07,3.6 0.02,3.72 -0.01,3.85 0,3.99 l 0.08,41.95 c -0.02,1.52 0.51,4.12 2.66,4.25 1.08,0.06 2.36,0.07 3.55,0.06 1.85,-0.01 3.43,-0.06 3.54,-0.07 0.1,0 0.19,-0.02 0.29,-0.05 0.25,-0.09 2.2,-0.79 2.84,-2.32 l 7.29,-0.01 v 0.8 c 0,0.56 0.45,1 1.01,1 l 6.96,-0.01 c 0,0 0,0 0,0 0.55,0 0.99,-0.44 1,-0.99 l 0.01,-0.77 c 2.06,0 3.36,0 4.58,-0.01 1.78,-0.01 2.78,-0.03 3.37,-0.07 0.62,1.58 2.62,2.29 2.87,2.37 0.09,0.03 0.19,0.05 0.28,0.05 0.12,0 2.19,0.08 4.38,0.06 0.94,0 1.89,-0.02 2.72,-0.07 2.15,-0.12 2.68,-2.73 2.65,-4.23 L 50.01,3.98 c 0,-0.13 -0.03,-0.27 -0.08,-0.39 z M 34.12,5.13 c 0.22,0 0.9,0 0.93,0.75 0,0 0.08,35.2 0.08,36.9 0,0.23 -0.05,0.38 -0.09,0.42 -0.06,0.05 -0.21,0.06 -0.27,0.06 v 0.03 c -0.31,-0.04 -0.7,-0.05 -1.16,-0.05 l -4.29,-0.03 -0.03,-16.26 3.33,-0.01 c 0,0 0,0 0,0 0.56,0 1,-0.45 1,-1.01 L 33.6,12.34 c 0,0 0,0 0,-0.01 0,0 0,0 0,-0.01 L 33.55,8.1 c -0.01,-0.55 -0.46,-1 -1.01,-1 L 19.37,7.15 C 16.26,7.16 16.25,7.16 16,7.8 15.95,7.92 15.93,8.05 15.93,8.17 l 0.04,17.79 c 0,0.56 0.45,1.01 1.01,1.01 l 3.23,-0.01 0.03,16.31 h -5.5 C 14.67,43.15 14.61,42.85 14.62,42.59 L 14.55,6.53 c 0,-0.05 0,-0.1 -0.01,-0.14 0.04,-0.13 0.06,-0.27 0.04,-0.42 -0.04,-0.34 0,-0.61 0.1,-0.71 0.13,-0.13 0.48,-0.14 0.62,-0.12 0.06,0.01 0.11,0.01 0.17,0.01 0,0 1.39,-0.01 3.4,0 L 25.1,5.14 c 4.22,0 8.37,0 9.02,-0.01 z m -13.93,12.93 0.01,6.89 -2.22,0.01 -0.03,-11.58 h 3.9 c 0.01,0 0.02,0.01 0.04,0.01 0,0 0,0 0,0 0.01,0 0.02,-0.01 0.04,-0.01 h 5.35 c 0.01,0 0.01,0 0.02,0 0,0 0,0 0,0 0.01,0 0.01,0 0.02,0 h 4.27 l 0.02,11.58 h -2.33 l -0.01,-7.09 c -0.07,-1.53 -1.08,-4.43 -4.47,-4.43 -3.37,0 -4.48,2.97 -4.61,4.62 z m 11.34,-8.92 0.03,2.21 h -3.27 l -0.01,-2.2 c 1.16,-0.01 2.26,-0.01 3.25,-0.01 z m -5.25,2.21 H 22.89 L 22.87,9.16 c 1.09,0 2.24,-0.01 3.4,-0.01 z m -5.43,-2.19 0.02,2.19 H 17.95 V 9.17 c 0.69,0 1.71,-0.01 2.9,-0.01 z M 12.14,3.2 c 0,-0.36 0.85,-0.39 0.85,-0.39 L 17.94,2.8 v 0.34 c -1.27,0 -2.17,0 -2.42,0 -0.35,-0.04 -1.44,-0.09 -2.23,0.66 -0.41,0.39 -0.86,1.11 -0.72,2.39 0,0.01 0,0.02 0,0.03 -0.03,0.1 -0.05,0.2 -0.05,0.31 l 0.07,36.02 c -0.05,1.25 0.55,2.64 2.04,2.74 h 5.6 v 0.49 l -7.4,0.01 C 12.61,45.7 12.21,44.59 12.21,43.3 12.22,42.91 12.14,4.58 12.14,3.2 Z M 10.12,3.19 c 0,1.39 0.08,39.72 0.08,40.11 0,0.5 0.07,2.43 0.93,3.59 -0.09,0.55 -1.01,1.07 -1.54,1.28 -0.8,0.02 -4.37,0.13 -6.74,0 C 2.34,48.14 2.08,46.72 2.09,45.95 L 2.01,4.21 C 2.27,3.7 3.15,2.2 4.7,2.19 c 0,0 0.01,0 0.01,0 2.18,0 3.25,-0.01 3.52,-0.01 0.28,0.04 0.97,0.21 1.37,0.59 m 12.67,44.81 v -0.8 -2.51 c 0,0 0,0 0,0 L 22.2,18.14 c 0.02,-0.27 0.3,-2.68 2.58,-2.69 0,0 0.01,0 0.01,0 2.2,0 2.42,2.08 2.45,2.45 l 0.05,26.29 c 0,0 0,0 0,0 l -0.06,3.39 z m 7.01,-1.76 0.01,-0.59 c 1.73,0.01 4.85,0.03 5.28,0.03 0.05,0 0.13,0.01 0.22,0.01 0.38,0 1.03,-0.09 1.57,-0.55 0.36,-0.31 0.79,-0.9 0.79,-1.94 0,-1.69 -0.08,-36.9 -0.08,-36.9 0,-0.12 -0.02,-0.73 -0.37,-1.36 -0.29,-0.52 -1.01,-1.4 -2.58,-1.4 -0.28,0 -1.18,0 -2.44,0 l 0.01,-0.36 c 1.51,-0.02 4.35,-0.04 5.55,0.01 0.01,0 0.07,0.01 0.13,0.06 0.07,0.14 0.07,0.28 0.07,0.75 0,0.06 0.01,0.14 0.01,0.2 l 0.08,40.42 c 0,0.88 -0.2,1.34 -0.27,1.56 -0.02,0 -0.04,0.01 -0.06,0.01 -0.6,0.03 -4.67,0.05 -7.92,0.05 z m 18.8,0.15 c 0.01,0.73 -0.24,2.17 -0.75,2.2 -2.38,0.14 -5.97,0.04 -6.76,0.01 -0.56,-0.22 -1.43,-0.74 -1.53,-1.26 0.34,-0.59 0.5,-1.48 0.5,-2.72 L 39.46,3.86 c 0.02,-0.17 -0.01,-0.09 0,-0.47 0.19,-0.19 0.51,-0.61 0.95,-0.82 0.5,-0.24 1.06,-0.32 1.35,-0.36 0.25,0 1.31,-0.01 3.51,-0.01 1.54,0 2.46,1.51 2.71,2.01 z"
   id="path23" />
		<g
   id="g105">
			<g
   id="g27">
				<path
   class="st3"
   d="m 8.76,6.91 c 0,0 0,0 0,0 H 3.42 C 2.86,6.91 2.41,6.46 2.41,5.9 c 0,-0.56 0.45,-1 1.01,-1.01 h 5.33 c 0.56,0 1.01,0.45 1.01,1.01 0,0.56 -0.44,1.01 -1,1.01 z"
   id="path25" />
			</g>
			<g
   id="g31">
				<path
   class="st3"
   d="m 8.54,11.1 c 0,0 0,0 0,0 l -5.11,0.01 c -0.56,0 -1.01,-0.45 -1.01,-1.01 0,-0.56 0.45,-1.01 1,-1.01 0,0 0,0 0,0 l 5.1,-0.01 c 0.56,0 1.01,0.45 1.01,1.01 0.01,0.56 -0.43,1.01 -0.99,1.01 z"
   id="path29" />
			</g>
			<g
   id="g35">
				<path
   class="st3"
   d="m 8.72,15.31 c 0,0 0,0 0,0 l -5.29,0.01 c -0.56,0 -1.01,-0.45 -1.01,-1.01 0,-0.56 0.45,-1.04 1.01,-1.01 l 5.28,-0.01 c 0.56,0 1.01,0.45 1.01,1.01 0.01,0.55 -0.44,1 -1,1.01 z"
   id="path33" />
			</g>
			<g
   id="g39">
				<path
   class="st3"
   d="m 8.89,19.51 c -0.01,0 -0.01,0 0,0 H 3.37 c -0.56,0 -1.01,-0.45 -1.01,-1.01 0,-0.55 0.45,-1.01 1,-1.01 0,0 0,0 0.01,0 h 5.51 c 0.56,0 1.01,0.45 1.01,1.01 0,0.56 -0.45,1.01 -1,1.01 z"
   id="path37" />
			</g>
			<g
   id="g43">
				<path
   class="st3"
   d="m 8.93,23.83 c 0,0 0,0 0,0 l -5.35,0.01 c -0.56,0 -1.01,-0.45 -1.01,-1.01 0,-0.56 0.45,-1.01 1,-1.01 0,0 0,0 0,0 l 5.34,-0.01 c 0.56,0 1.01,0.45 1.01,1.01 0.01,0.55 -0.44,1 -0.99,1.01 z"
   id="path41" />
			</g>
			<g
   id="g47">
				<path
   class="st3"
   d="m 8.7,28.02 c 0,0 0,0 0,0 l -5.11,0.01 c -0.56,0 -1.01,-0.45 -1.01,-1.01 0,-0.56 0.45,-1.01 1,-1.01 0,0 0,0 0,0 L 8.69,26 c 0.56,0 1.01,0.45 1.01,1.01 0,0.56 -0.45,1.01 -1,1.01 z"
   id="path45" />
			</g>
			<g
   id="g51">
				<path
   class="st3"
   d="m 8.88,32.23 c 0,0 0,0 0,0 H 3.6 c -0.56,0 -1.01,-0.45 -1.01,-1.01 0,-0.55 0.45,-1 1,-1.01 0,0 0,0 0.01,0 h 5.27 c 0.56,0 1.01,0.45 1.01,1.01 0,0.56 -0.44,1.01 -1,1.01 z"
   id="path49" />
			</g>
			<g
   id="g55">
				<path
   class="st3"
   d="m 9.04,36.43 c 0,0 0,0 0,0 l -5.51,0.01 c -0.56,0 -1.01,-0.45 -1.01,-1.01 0,-0.56 0.45,-1.01 1,-1.01 0,0 0,0 0,0 l 5.5,-0.01 c 0.56,0 1.01,0.45 1.01,1.01 0.02,0.55 -0.43,1 -0.99,1.01 z"
   id="path53" />
			</g>
			<g
   id="g59">
				<path
   class="st3"
   d="m 8.85,41 c -0.01,0 -0.01,0 0,0 L 3.5,41.01 c -0.56,0 -1.01,-0.45 -1.01,-1.01 0,-0.56 0.45,-1.01 1,-1.01 0,0 0,0 0,0 l 5.34,-0.01 c 0.56,0 1.01,0.45 1.01,1.01 C 9.85,40.55 9.4,41 8.85,41 Z"
   id="path57" />
			</g>
			<g
   id="g63">
				<path
   class="st3"
   d="m 8.63,45.2 c -0.01,0 -0.01,0 0,0 l -5.12,0.01 c -0.56,0 -1.01,-0.45 -1.01,-1.01 0,-0.56 0.45,-1.01 1,-1.01 0,0 0,0 0,0 l 5.11,-0.01 c 0.56,0 1.01,0.45 1.01,1.01 0.01,0.56 -0.44,1.01 -0.99,1.01 z"
   id="path61" />
			</g>
			<g
   id="g67">
				<path
   class="st3"
   d="m 46.31,6.68 c -0.01,0 -0.01,0 0,0 l -5.35,0.01 c -0.56,0 -1.01,-0.45 -1.01,-1.01 0,-0.56 0.45,-1.01 1,-1.01 0,0 0,0 0,0 l 5.34,-0.01 c 0.56,0 1.01,0.45 1.01,1.01 0.01,0.55 -0.44,1 -0.99,1.01 z"
   id="path65" />
			</g>
			<g
   id="g71">
				<path
   class="st3"
   d="m 46.07,10.88 c 0,0 0,0 0,0 l -5.11,0.01 c -0.56,0 -1.01,-0.45 -1.01,-1.01 0,-0.56 0.45,-1.01 1,-1.01 0,0 0,0 0,0 l 5.1,-0.01 c 0.56,0 1.01,0.45 1.01,1.01 0.02,0.56 -0.43,1.01 -0.99,1.01 z"
   id="path69" />
			</g>
			<g
   id="g75">
				<path
   class="st3"
   d="m 46.26,15.08 c 0,0 -0.01,0 0,0 l -5.29,0.01 c -0.56,0 -1.01,-0.45 -1.01,-1.01 0,-0.56 0.45,-1.01 1,-1.01 0,0 0,0 0,0 l 5.28,-0.01 c 0.56,0 1.01,0.45 1.01,1.01 0.01,0.56 -0.44,1.01 -0.99,1.01 z"
   id="path73" />
			</g>
			<g
   id="g79">
				<path
   class="st3"
   d="m 46.42,19.28 c 0,0 0,0 0,0 l -5.52,0.01 c -0.56,0 -1.01,-0.45 -1.01,-1.01 0,-0.56 0.45,-1.01 1,-1.01 0,0 0,0 0,0 l 5.51,-0.01 c 0.56,0 1.01,0.45 1.01,1.01 0.01,0.55 -0.43,1 -0.99,1.01 z"
   id="path77" />
			</g>
			<g
   id="g83">
				<path
   class="st3"
   d="m 46.46,23.6 c 0,0 0,0 0,0 l -5.35,0.01 c -0.56,0 -1.01,-0.45 -1.01,-1.01 0,-0.56 0.45,-1.01 1,-1.01 0,0 0,0 0,0 l 5.34,-0.01 c 0.56,0 1.01,0.45 1.01,1.01 0.02,0.56 -0.43,1.01 -0.99,1.01 z"
   id="path81" />
			</g>
			<g
   id="g87">
				<path
   class="st3"
   d="m 46.24,27.8 c 0,0 0,0 0,0 l -5.12,0.01 c -0.56,0 -1.01,-0.45 -1.01,-1.01 0,-0.56 0.45,-1.01 1,-1.01 0,0 0,0 0,0 l 5.11,-0.01 c 0.56,0 1.01,0.45 1.01,1.01 0.02,0.55 -0.43,1 -0.99,1.01 z"
   id="path85" />
			</g>
			<g
   id="g91">
				<path
   class="st3"
   d="m 46.43,32 c -0.01,0 -0.01,0 0,0 l -5.29,0.01 c -0.56,0 -1.01,-0.45 -1.01,-1.01 0,-0.56 0.45,-1.01 1,-1.01 0,0 0,0 0,0 l 5.28,-0.01 c 0.56,0 1.01,0.45 1.01,1.01 0.01,0.56 -0.44,1.01 -0.99,1.01 z"
   id="path89" />
			</g>
			<g
   id="g95">
				<path
   class="st3"
   d="m 46.59,36.2 c 0,0 -0.01,0 0,0 l -5.52,0.01 c -0.56,0 -1.01,-0.45 -1.01,-1.01 0,-0.56 0.45,-1.01 1,-1.01 0,0 0,0 0,0 l 5.51,-0.01 c 0.56,0 1.01,0.45 1.01,1.01 0.01,0.56 -0.44,1.01 -0.99,1.01 z"
   id="path93" />
			</g>
			<g
   id="g99">
				<path
   class="st3"
   d="m 46.38,40.78 c 0,0 -0.01,0 0,0 h -5.34 c -0.56,0 -1.01,-0.45 -1.01,-1.01 0,-0.55 0.45,-1 1,-1.01 0,0 0,0 0.01,0 h 5.33 c 0.56,0 1.01,0.45 1.01,1.01 0,0.56 -0.45,1.01 -1,1.01 z"
   id="path97" />
			</g>
			<g
   id="g103">
				<path
   class="st3"
   d="m 46.16,44.98 c 0,0 0,0 0,0 l -5.12,0.01 c -0.56,0 -1.01,-0.45 -1.01,-1.01 0,-0.56 0.45,-1.01 1,-1.01 0,0 0,0 0,0 l 5.11,-0.01 c 0.56,0 1.01,0.45 1.01,1.01 0.01,0.55 -0.44,1 -0.99,1.01 z"
   id="path101" />
			</g>
		</g>
	</g>
</g></g></g></g></g></g></g></g></g>
</svg>
