<?xml version="1.0" encoding="UTF-8" standalone="no"?>
<svg
   viewBox="0 0 170.08 170.08"
   version="1.1"
   id="svg136"
   sodipodi:docname="TankMan.svg"
   inkscape:version="1.1 (c68e22c387, 2021-05-23)"
   xmlns:inkscape="http://www.inkscape.org/namespaces/inkscape"
   xmlns:sodipodi="http://sodipodi.sourceforge.net/DTD/sodipodi-0.dtd"
   xmlns="http://www.w3.org/2000/svg"
   xmlns:svg="http://www.w3.org/2000/svg"
   xmlns:rdf="http://www.w3.org/1999/02/22-rdf-syntax-ns#"
   xmlns:cc="http://creativecommons.org/ns#"
   xmlns:dc="http://purl.org/dc/elements/1.1/">
  <sodipodi:namedview
     id="namedview138"
     pagecolor="#ffffff"
     bordercolor="#666666"
     borderopacity="1.0"
     inkscape:pageshadow="2"
     inkscape:pageopacity="0.0"
     inkscape:pagecheckerboard="0"
     showgrid="false"
     inkscape:zoom="6.918072"
     inkscape:cx="-68.877572"
     inkscape:cy="215.7393"
     inkscape:window-width="1920"
     inkscape:window-height="1017"
     inkscape:window-x="-8"
     inkscape:window-y="32"
     inkscape:window-maximized="1"
     inkscape:current-layer="svg136" />
  <defs
     id="defs14">
    <style
       id="style2">.cls-1{fill:#262834;}.cls-2{fill:#555656;}.cls-2,.cls-4{stroke:#040000;stroke-linecap:round;stroke-linejoin:round;stroke-width:3px;}.cls-3{fill:#878787;}.cls-4{fill:#f7d978;}.cls-5{fill:#535354;}.cls-6{fill:#598dca;}.cls-7{fill:url(#未命名漸層_8);}.cls-8{fill:#231815;}.cls-9{fill:#444;}.cls-10{fill:#545354;}.cls-11{fill:#599b3c;}.cls-12{fill:url(#未命名漸層_31);}.cls-13{fill:#040000;}.cls-14{fill:#454444;}</style>
    <linearGradient
       id="未命名漸層_8"
       x1="48.83"
       y1="64.64"
       x2="48.83"
       y2="7.69"
       gradientTransform="translate(-15.88 46.22) rotate(-41.41)"
       gradientUnits="userSpaceOnUse">
      <stop
         offset="0"
         stop-color="#247abf"
         id="stop4" />
      <stop
         offset="1"
         stop-color="#2352a3"
         id="stop6" />
    </linearGradient>
    <linearGradient
       id="未命名漸層_31"
       x1="149.96"
       y1="170.64"
       x2="149.96"
       y2="114.04"
       gradientTransform="translate(331.24 132.78) rotate(138.06)"
       gradientUnits="userSpaceOnUse">
      <stop
         offset="0.01"
         stop-color="#36ae37"
         id="stop9" />
      <stop
         offset="1"
         stop-color="#436831"
         id="stop11" />
    </linearGradient>
    <linearGradient
       id="未命名漸層_8-1"
       x1="48.830002"
       y1="64.639999"
       x2="48.830002"
       y2="7.6900001"
       gradientTransform="rotate(-41.41,53.202703,44.117056)"
       gradientUnits="userSpaceOnUse">
      <stop
         offset="0"
         stop-color="#247abf"
         id="stop4-2" />
      <stop
         offset="1"
         stop-color="#2352a3"
         id="stop6-9" />
    </linearGradient>
    <linearGradient
       id="未命名漸層_31-0"
       x1="149.96001"
       y1="170.64"
       x2="149.96001"
       y2="114.04"
       gradientTransform="rotate(138.06,140.17514,129.86608)"
       gradientUnits="userSpaceOnUse">
      <stop
         offset="0.01"
         stop-color="#36ae37"
         id="stop9-9" />
      <stop
         offset="1"
         stop-color="#436831"
         id="stop11-0" />
    </linearGradient>
  </defs>
  <title
     id="title16">car</title>
  <g
     id="圖層_2"
     data-name="圖層 2">
    <rect
       class="cls-1"
       x="-0.59"
       y="-0.35"
       width="171.29"
       height="170.82"
       id="rect18" />
    <path
       class="cls-2"
       d="M34.91,142.88h43.5a7.71,7.71,0,0,1,7.71,7.71v10.7A7.71,7.71,0,0,1,78.41,169h-70a7.71,7.71,0,0,1-7.71-7.74c.07-17.08.27-57.77.49-74.72a7.7,7.7,0,0,1,7.71-7.6H19.51a7.72,7.72,0,0,1,7.72,7.72c0,12.3,0,36.23,0,48.52A7.71,7.71,0,0,0,34.91,142.88Z"
       id="path20" />
    <path
       class="cls-3"
       d="M2.38,125.91s-2.82-.17,23.3-.17V95.47h-23Z"
       id="path22" />
    <path
       class="cls-2"
       d="M134.89,27.18H91a7.5,7.5,0,0,1-7.5-7.5V8.56A7.5,7.5,0,0,1,91,1.06h70.44a7.5,7.5,0,0,1,7.5,7.53c-.07,17-.27,58.25-.49,75.13a7.5,7.5,0,0,1-7.5,7.4H149.86a7.5,7.5,0,0,1-7.5-7.51c0-12.31,0-36.65,0-48.95A7.49,7.49,0,0,0,134.89,27.18Z"
       id="path24" />
    <path
       class="cls-3"
       d="M167.21,44.15s2.82.17-23.3.17V74.59h23Z"
       id="path26" />
  </g>
  <g
     id="圖層_4"
     data-name="圖層 4"
     inkscape:export-filename="C:\Users\Jesse\Documents\PygameCourse\GameFramework\TankMan\asset\image\logo.png"
     inkscape:export-xdpi="96"
     inkscape:export-ydpi="96">
    <polygon
       class="cls-4"
       points="91.59 65.12 116.83 54.19 102.88 76.94 119.26 81.25 107.65 87.53 112.66 99.3 96.35 102 91.41 114.88 82.77 103.23 67.51 122.12 74.65 99.71 40.41 94.7 65.47 81.71 60.38 68.69 69.53 67.41 76.54 50.47 91.59 65.12"
       id="polygon29" />
    <path
       class="cls-2"
       d="M97,88.38l3.45,3.86s-8.23,7.74-8.24,7.91L88.7,96.28l-3.61-4s-3.74-4.67.31-8.56,7.67.32,7.67.32L97,88.36,88.7,96.28"
       id="path31" />
    <path
       class="cls-2"
       d="M72.1,78l-3.43-3.87s8.26-7.71,8.27-7.88l3.45,3.88,3.6,4s3.72,4.69-.36,8.56S76,82.39,76,82.39L72.08,78l8.31-7.89"
       id="path33" />
    <rect
       class="cls-5"
       x="15.21"
       y="21.95"
       width="13.7"
       height="67.04"
       transform="translate(-31.07 28.25) rotate(-41.19)"
       id="rect35" />
    <rect
       class="cls-5"
       x="54.6"
       y="-13.48"
       width="14.71"
       height="67.48"
       transform="translate(1.98 45.81) rotate(-41.19)"
       id="rect37" />
    <polygon
       class="cls-6"
       points="76.95 48.7 65.99 58.3 67.24 59.73 59.29 66.69 58.03 65.25 47.77 74.23 5.28 25.76 13.56 18.52 14.83 19.93 27.68 8.68 26.45 7.24 34.46 0.23 76.95 48.7"
       id="polygon39" />
    <polygon
       class="cls-7"
       points="34.18 12.32 17.47 27.06 34.24 46.08 38.47 42.35 59.37 66.04 66.47 59.77 45.58 36.08 50.95 31.33 34.18 12.32"
       id="polygon41" />
    <path
       class="cls-8"
       d="M48.67-9.3c-.19-.09-4.82-2.32-8.28.7L36.51-5.2l-.1.1a7,7,0,0,0-1.74,3.67.68.68,0,0,0,0,.2,3.06,3.06,0,0,0-2.5.69C30.28,1,25.22,5.55,25,5.75a1.45,1.45,0,0,0-.14,2L26.24,9.4l-10.5,9.18-1.28-1.45A1.46,1.46,0,0,0,12.41,17L6,22.64a6.24,6.24,0,0,0-1.17,1.48,4.32,4.32,0,0,0-.38,1,.76.76,0,0,0-.16,0A7,7,0,0,0,.39,26.33l-.12.1-3.88,3.39,0,0c-3.43,3-1.83,7.88-1.76,8.09a1.33,1.33,0,0,0,.28.49L34.71,83.85c1.42,1.67,4.47,4,6.91,2.08,1.2-.94,2.59-2.12,3.85-3.23,2-1.79,3.72-3.39,3.84-3.5a1.35,1.35,0,0,0,.26-.32c.19-.33,1.64-2.94.88-5.21L58,67l.76.86a1.46,1.46,0,0,0,2.05.14l7.55-6.61h0a1.45,1.45,0,0,0,.15-2l-.7-.84c5.47-4.79,7.82-6.86,8.84-7.87,2.17,1.12,5,0,5.37-.16a1.41,1.41,0,0,0,.35-.21c.14-.11,2.44-2,4.79-4,1-.9,2-1.83,2.9-2.68,2.21-2.17.31-5.49-1.14-7.1L49.12-8.95A1.52,1.52,0,0,0,48.67-9.3ZM29.81,34.82l6.55,7.47-2.1,1.84-11-12.55,4.23-3.69.05,0h0l0,0,5.79-5.06h0l4.62-4L49,31.22l-2.83,2.47L39.45,26c-1.52-1.6-5.37-3.78-9-.58l0,0C26.79,28.64,28.39,32.91,29.81,34.82ZM34,14.14l2.12,2.37-3.54,3.1-2.1-2.39Zm-3.61,7.38L26.7,24.73l-2.1-2.37,3.68-3.23Zm-8,2.76,2.1,2.36L21.35,29.4,19.27,27ZM48.1,35.88,52,32.45h0a1.45,1.45,0,0,0,.49-1,1.5,1.5,0,0,0-.36-1.05L39.25,15.68h0l-4.05-4.54a1.45,1.45,0,0,0-2-.12L18.9,23.49c-3.36,3-3.36,3-3,3.88a1.36,1.36,0,0,0,.29.49L33,47.13a1.45,1.45,0,0,0,2,.14l3.19-2.8L53.74,62.12l-5.65,4.94a2.33,2.33,0,0,1-.78-.62l-34.22-39-.16-.16a1.45,1.45,0,0,0-.34-.48c-.37-.34-.58-.66-.56-.87s.39-.6.56-.72l.19-.14L33,7.34a1.12,1.12,0,0,1,1.71-.06l35,39.95a.93.93,0,0,1,.29.53.6.6,0,0,1-.23.33l0,0a11.28,11.28,0,0,0-1.3,1l-5,4.3ZM7.32,26.05c-.34-.38.55-1.22.55-1.22l5.36-4.7.32.37-2.61,2.29a4.08,4.08,0,0,0-1.8,2.83,3.87,3.87,0,0,0,1.48,3.27l.05.05a1.47,1.47,0,0,0,.24.37l34.18,39c1.13,1.41,3.1,2.35,4.81,1l5.75-5,.48.54-7.68,6.73c-.28.2-1.83-.69-3.06-2.09Zm39.83,51.2c-.83.78-4.62,4.29-7.32,6.39-.58.45-2.2-.85-2.92-1.69L-2.71,36.75c-.2-.79-.65-3.28,1-4.74h0l3.81-3.33A4,4,0,0,1,4.17,28,1.4,1.4,0,0,0,5,27.74a1.5,1.5,0,0,0,.15.23L43.2,71.39c.48.54,2.33,2.53,4.39,3C48.06,75,47.53,76.51,47.15,77.25ZM60,64.89,59.27,64l-2.39-2.73L32.07,33c-.23-.32-2.16-3.17.26-5.37a3.5,3.5,0,0,1,5,.35l25,28.47h0l3.14,3.73Zm6-8.55-.56-.66,6.06-5.23.24-.19a3.3,3.3,0,0,0,.19-4.94l-35-40a4,4,0,0,0-5.81-.21L28.42,7.48,28,7c1.61-1.44,4.68-4.17,6-5.25,0,0,.13-.1.17-.09a2.23,2.23,0,0,1,1,.91l.15.2L73.69,46.5A8,8,0,0,1,75,48.35l-.06.07C74.32,49,69.49,53.25,66,56.34ZM86.79,38.42c.72.81,1.8,2.59,1.28,3.1-2.45,2.4-6.44,5.69-7.32,6.41-.8.29-2.23.55-2.85.09a8,8,0,0,0-2-3.43L37.58.91A6.18,6.18,0,0,0,36.8,0a1.43,1.43,0,0,0,.76-1.1,4.13,4.13,0,0,1,.93-1.94L42.3-6.41c1.67-1.46,4.1-.68,4.85-.38Z"
       id="path43" />
    <path
       class="cls-9"
       d="M1.38,38.35l5.79-5.07h0A1.45,1.45,0,1,0,5.26,31.1L-.53,36.16h0a1.44,1.44,0,0,0-.13,2A1.45,1.45,0,0,0,1.38,38.35Z"
       id="path45" />
    <path
       class="cls-9"
       d="M5.37,42.89l5.53-4.84h0A1.45,1.45,0,0,0,9,35.86L3.46,40.71h0a1.45,1.45,0,0,0,1.92,2.18Z"
       id="path47" />
    <path
       class="cls-9"
       d="M9.36,47.45l5.72-5h0a1.44,1.44,0,0,0,.13-2,1.46,1.46,0,0,0-2.05-.14l-5.72,5h0a1.46,1.46,0,0,0,1.92,2.19Z"
       id="path49" />
    <path
       class="cls-9"
       d="M13.26,52.06l6-5.22h0a1.45,1.45,0,0,0-1.92-2.18l-6,5.23h0a1.45,1.45,0,0,0,1.92,2.18Z"
       id="path51" />
    <path
       class="cls-9"
       d="M21.45,49.3l-5.78,5.06h0a1.44,1.44,0,0,0-.13,2,1.46,1.46,0,0,0,2,.14l5.78-5.07h0a1.45,1.45,0,0,0-1.92-2.18Z"
       id="path53" />
    <path
       class="cls-9"
       d="M21.56,61.09l5.54-4.84h0a1.45,1.45,0,0,0-1.91-2.18l-5.54,4.85h0a1.45,1.45,0,1,0,1.91,2.18Z"
       id="path55" />
    <path
       class="cls-9"
       d="M25.56,65.65l5.72-5h0a1.45,1.45,0,0,0-1.91-2.19l-5.73,5a1.46,1.46,0,0,0,1.92,2.19Z"
       id="path57" />
    <path
       class="cls-9"
       d="M33.52,62.85l-6,5.23h0a1.45,1.45,0,0,0,1.92,2.18l6-5.22h0a1.45,1.45,0,1,0-1.91-2.18Z"
       id="path59" />
    <path
       class="cls-9"
       d="M37.63,68l-5.78,5.06h0a1.46,1.46,0,0,0,1.92,2.19l5.78-5.07h0A1.45,1.45,0,1,0,37.63,68Z"
       id="path61" />
    <path
       class="cls-9"
       d="M41.36,72.77l-5.53,4.84a1.45,1.45,0,0,0,1.91,2.19L43.28,75h0a1.44,1.44,0,0,0,.13-2A1.46,1.46,0,0,0,41.36,72.77Z"
       id="path63" />
    <path
       class="cls-9"
       d="M41.88,2.56,47.67-2.5h0a1.45,1.45,0,0,0,.13-2,1.45,1.45,0,0,0-2-.13L40,.38h0a1.45,1.45,0,1,0,1.91,2.18Z"
       id="path65" />
    <path
       class="cls-9"
       d="M45.87,7.11,51.4,2.26h0A1.45,1.45,0,1,0,49.49.08L44,4.92h0a1.44,1.44,0,0,0-.13,2A1.46,1.46,0,0,0,45.87,7.11Z"
       id="path67" />
    <path
       class="cls-9"
       d="M49.86,11.66l5.72-5h0a1.45,1.45,0,1,0-1.91-2.18L48,9.48h0a1.45,1.45,0,0,0,1.92,2.18Z"
       id="path69" />
    <path
       class="cls-9"
       d="M53.76,16.28l6-5.23h0a1.45,1.45,0,1,0-1.92-2.18l-6,5.22a1.47,1.47,0,0,0-.14,2.05A1.45,1.45,0,0,0,53.76,16.28Z"
       id="path71" />
    <path
       class="cls-9"
       d="M62,13.52l-5.78,5.06h0a1.45,1.45,0,1,0,1.92,2.18l5.78-5.06h0A1.45,1.45,0,1,0,62,13.52Z"
       id="path73" />
    <path
       class="cls-9"
       d="M62.06,25.31l5.53-4.85h0a1.45,1.45,0,0,0-1.92-2.18l-5.53,4.84h0a1.45,1.45,0,1,0,1.91,2.18Z"
       id="path75" />
    <path
       class="cls-9"
       d="M66.05,29.86l5.73-5h0a1.45,1.45,0,0,0-1.92-2.18l-5.72,5h0a1.45,1.45,0,0,0,1.91,2.18Z"
       id="path77" />
    <path
       class="cls-9"
       d="M70,34.48l6-5.23h0A1.45,1.45,0,0,0,74,27.07L68,32.3h0A1.45,1.45,0,0,0,70,34.48Z"
       id="path79" />
    <path
       class="cls-9"
       d="M78.13,32.22l-5.79,5.07h0a1.45,1.45,0,1,0,1.92,2.18L80,34.41h0a1.45,1.45,0,0,0-1.92-2.18Z"
       id="path81" />
    <path
       class="cls-9"
       d="M81.86,37l-5.53,4.84h0A1.46,1.46,0,0,0,78.24,44l5.53-4.85h0A1.45,1.45,0,0,0,81.86,37Z"
       id="path83" />
    <rect
       class="cls-10"
       x="140.01"
       y="79.88"
       width="13.52"
       height="66.12"
       transform="translate(-37.94 126.3) rotate(-41.72)"
       id="rect85" />
    <rect
       class="cls-10"
       x="100.49"
       y="114.75"
       width="14.51"
       height="66.57"
       transform="translate(-71.19 109.23) rotate(-41.72)"
       id="rect87" />
    <polygon
       class="cls-11"
       points="92.69 120.13 103.42 110.56 102.16 109.16 109.95 102.22 111.2 103.62 121.23 94.67 163.59 142.09 155.49 149.31 154.22 147.94 141.65 159.15 142.89 160.56 135.05 167.55 92.69 120.13"
       id="polygon89" />
    <path
       class="cls-12"
       d="M151.37,141.1l-16-17.8-3.79,3.41L109.75,102.4l-7.49,6.73,21.85,24.31-4.51,4.05,16,17.79Z"
       id="path91" />
    <path
       class="cls-13"
       d="M121.09,177.07c.2.09,4.78,2.25,8.17-.77,2.71-2.43,3.79-3.39,3.89-3.49h0a7,7,0,0,0,1.69-3.63c0-.07,0-.13,0-.19h0a3,3,0,0,0,2.45-.7c1.87-1.55,6.82-6.07,7-6.26a1.42,1.42,0,0,0,.12-2l-1.37-1.62h0l4.84-4.31,5.44-4.85h0l1.27,1.43a1.42,1.42,0,0,0,1,.48,1.47,1.47,0,0,0,1-.36l6.31-5.64h0a4.82,4.82,0,0,0,1.48-2.46l.15,0a6.93,6.93,0,0,0,3.81-1.25l.12-.1,3.78-3.38,0,0c3.36-3,1.74-7.79,1.67-8a1.49,1.49,0,0,0-.28-.49L134,85.07c-1.41-1.63-4.44-3.89-6.84-2-1.2,1-2.57,2.15-3.82,3.28-2,1.75-3.59,3.31-3.7,3.41a1.59,1.59,0,0,0-.25.33c-.19.32-1.59,2.91-.83,5.14h0l-7.42,6.63h0l-.75-.84a1.44,1.44,0,0,0-2-.11L101,107.49h0a1.43,1.43,0,0,0-.13,2l.7.82h0l-5.15,4.59c-1.87,1.69-2.92,2.65-3.51,3.25h0c-2.15-1.09-4.94,0-5.29.19a1.41,1.41,0,0,0-.35.21c-.13.11-2.4,2-4.7,4.06-1,.89-2,1.82-2.82,2.65-2.17,2.16-.27,5.42,1.18,7l39.71,44.46A1.34,1.34,0,0,0,121.09,177.07Zm15.33-16.56a1.12,1.12,0,0,1-1.69.08s-33.32-37.29-34.91-39.08a1,1,0,0,1-.3-.53.71.71,0,0,1,.23-.33l0,0a14,14,0,0,0,1.28-1l4.88-4.29h0l15.38,17.22h0l-3.82,3.41h0a1.45,1.45,0,0,0-.12,2l12.85,14.4h0l4,4.43a1.43,1.43,0,0,0,2,.1l13.93-12.44c3.29-2.95,3.3-3,3-3.88a1.46,1.46,0,0,0-.28-.46L136,121.27a1.45,1.45,0,0,0-2-.12l-3.12,2.79h0l-15.42-17.27h0l5.53-4.92a2.28,2.28,0,0,1,.78.61l34.12,38.2a.93.93,0,0,0,.14.14,1.52,1.52,0,0,0,.35.49c.37.33.58.64.56.84s-.37.6-.54.72a1.33,1.33,0,0,0-.19.14s-1.47,1.32-3.61,3.21L146,152C141.5,156,137.1,159.89,136.42,160.51Zm2.88-27.14-6.51-7.29h0l2.05-1.84h0l11,12.27h0l-4.13,3.68,0,0h0s0,0,0,0l-5.67,5.05h0l-4.52,4h0l-10.94-12.26h0l2.76-2.46h0l6.7,7.5c1.51,1.57,5.33,3.69,8.91.48s1.94-7.37.51-9.25Zm-3.92,20.44-2.1-2.31h0l3.46-3.08h0l2.08,2.32h0l-3.43,3.06Zm3.5-7.3,3.59-3.2h0l2.08,2.31h0l-3.6,3.22h0l-2.08-2.33Zm7.82-2.8-2.08-2.3h0l3.09-2.75h0l2.06,2.3h0l-3.07,2.75Zm14.87-1.9c.34.39-.52,1.22-.53,1.23l-5.24,4.68-.32-.36,2.56-2.28a4.07,4.07,0,0,0,1.75-2.81,3.84,3.84,0,0,0-1.5-3.22l0,0a1.42,1.42,0,0,0-.24-.38l-34.08-38.15c-1.13-1.38-3.07-2.28-4.75-1l-5.64,5-.47-.52,7.55-6.73h0c.31-.12,1.79.69,3,2.06C124,99.75,160.27,140.34,161.57,141.81ZM121.82,91.68h0c.82-.78,4.52-4.26,7.15-6.36.57-.45,2.19.82,2.91,1.64l39.49,44.22h0c.21.78.68,3.21-1,4.68h0c-2.32,2.06-3.45,3.08-3.73,3.33a4,4,0,0,1-2,.67,1.4,1.4,0,0,0-.81.26c-.06-.07-.09-.15-.15-.22L125.77,97.43c-.48-.53-2.36-2.51-4.38-2.94h0C121,93.82,121.46,92.4,121.82,91.68ZM109.23,104l.75.84,2.38,2.66h0l24.73,27.69c.23.31,2.21,3.13-.2,5.29h0c-2.32,2.08-4.53.08-4.91-.3L107.1,112.34h0L104,108.69h0Zm-5.78,8.49.54.63-5.93,5.22-.24.19a3.43,3.43,0,0,0-1.14,2.07,3.47,3.47,0,0,0,1,2.81l34.92,39.08a4.28,4.28,0,0,0,1.67,1.11,3.93,3.93,0,0,0,4.06-1l2.59-2.31.43.51c-1.58,1.44-4.58,4.15-5.9,5.24,0,0-.11.1-.15.09a2.28,2.28,0,0,1-1-.89,1,1,0,0,0-.15-.2L95.93,122.26a7.83,7.83,0,0,1-1.27-1.75l0-.12C95.26,119.81,100,115.57,103.45,112.49ZM83.06,130.35c-.7-.77-1.79-2.53-1.28-3,2.39-2.39,6.3-5.67,7.16-6.39h0c.8-.3,2.21-.57,2.82-.11h0a7.85,7.85,0,0,0,2,3.36L132,166.9a6.26,6.26,0,0,0,.76.92,1.39,1.39,0,0,0-.72,1.09,4,4,0,0,1-.92,1.92l-3.72,3.33c-1.64,1.46-4,.71-4.78.42h0Z"
       id="path93" />
    <path
       class="cls-14"
       d="M161.66,134.69h0l5.67-5a1.43,1.43,0,0,1,2,.12,1.45,1.45,0,0,1-.12,2l-5.67,5a1.43,1.43,0,1,1-1.9-2.13Z"
       id="path95" />
    <path
       class="cls-14"
       d="M157.93,130h0l5.41-4.82a1.43,1.43,0,0,1,1.91,2.14h0l-5.41,4.82a1.43,1.43,0,0,1-1.91-2.13Z"
       id="path97" />
    <path
       class="cls-14"
       d="M153.77,125.74h0l5.6-5a1.43,1.43,0,0,1,2,.12,1.4,1.4,0,0,1-.11,2l-5.6,5a1.43,1.43,0,0,1-1.91-2.13Z"
       id="path99" />
    <path
       class="cls-14"
       d="M149.63,121.43h0l5.86-5.21a1.43,1.43,0,0,1,1.91,2.14h0l-5.85,5.21a1.43,1.43,0,0,1-1.91-2.14Z"
       id="path101" />
    <path
       class="cls-14"
       d="M145.51,116.89h0l5.66-5a1.43,1.43,0,0,1,1.91,2.13h0L147.42,119a1.43,1.43,0,0,1-1.91-2.14Z"
       id="path103" />
    <path
       class="cls-14"
       d="M141.8,112.22h0l5.41-4.82a1.43,1.43,0,0,1,2,.11,1.44,1.44,0,0,1-.11,2h0l-5.4,4.83a1.43,1.43,0,1,1-1.91-2.14Z"
       id="path105" />
    <path
       class="cls-14"
       d="M137.63,107.92h0l5.6-5a1.43,1.43,0,0,1,2,.11,1.44,1.44,0,0,1-.11,2h0l-5.6,5a1.43,1.43,0,0,1-1.9-2.14Z"
       id="path107" />
    <path
       class="cls-14"
       d="M133.5,103.63h0l5.83-5.2a1.43,1.43,0,0,1,1.91,2.13h0l-5.83,5.2a1.43,1.43,0,1,1-1.91-2.13Z"
       id="path109" />
    <path
       class="cls-14"
       d="M129.38,98.58h0l5.66-5A1.43,1.43,0,0,1,137,95.66h0l-5.67,5.06a1.43,1.43,0,0,1-1.91-2.14Z"
       id="path111" />
    <path
       class="cls-14"
       d="M125.66,93.92h0l5.42-4.83A1.43,1.43,0,0,1,133,91.22h0l-5.42,4.84a1.43,1.43,0,0,1-1.91-2.14Z"
       id="path113" />
    <path
       class="cls-14"
       d="M122,170.37h0l5.66-5.05a1.43,1.43,0,1,1,1.91,2.13h0l-5.67,5.06a1.43,1.43,0,0,1-1.91-2.14Z"
       id="path115" />
    <path
       class="cls-14"
       d="M118.31,165.69h0l5.41-4.82a1.43,1.43,0,0,1,1.91,2.13h0l-5.41,4.83a1.43,1.43,0,0,1-1.91-2.14Z"
       id="path117" />
    <path
       class="cls-14"
       d="M114.15,161.4h0l5.6-5a1.43,1.43,0,0,1,1.91,2.13h0l-5.6,5a1.43,1.43,0,0,1-1.91-2.14Z"
       id="path119" />
    <path
       class="cls-14"
       d="M110,157.11h0l5.85-5.21a1.42,1.42,0,0,1,2,.12,1.43,1.43,0,0,1-.11,2h0l-5.84,5.21a1.43,1.43,0,1,1-1.91-2.13Z"
       id="path121" />
    <path
       class="cls-14"
       d="M105.89,152.56h0l5.67-5.05a1.43,1.43,0,0,1,1.91,2.14h0l-5.66,5.05a1.43,1.43,0,0,1-1.91-2.13Z"
       id="path123" />
    <path
       class="cls-14"
       d="M102.16,147.9h0l5.42-4.83a1.43,1.43,0,0,1,1.91,2.14h0L104.07,150a1.43,1.43,0,0,1-2-.11A1.44,1.44,0,0,1,102.16,147.9Z"
       id="path125" />
    <path
       class="cls-14"
       d="M98,143.61h0l5.6-5a1.43,1.43,0,0,1,1.91,2.13h0l-5.6,5a1.43,1.43,0,0,1-2-.11A1.44,1.44,0,0,1,98,143.61Z"
       id="path127" />
    <path
       class="cls-14"
       d="M93.86,139.3h0l5.84-5.22a1.43,1.43,0,0,1,1.91,2.14h0l-5.85,5.21a1.43,1.43,0,1,1-1.91-2.13Z"
       id="path129" />
    <path
       class="cls-14"
       d="M89.76,134.25h0l5.66-5a1.43,1.43,0,0,1,1.91,2.13h0l-5.66,5a1.43,1.43,0,0,1-1.91-2.13Z"
       id="path131" />
    <path
       class="cls-14"
       d="M86,129.59h0l5.42-4.83a1.44,1.44,0,0,1,2,.12,1.41,1.41,0,0,1-.11,2h0L88,131.72A1.43,1.43,0,1,1,86,129.59Z"
       id="path133" />
  </g>
  <metadata
     id="metadata955">
    <rdf:RDF>
      <cc:Work
         rdf:about="">
        <dc:title>car</dc:title>
      </cc:Work>
    </rdf:RDF>
  </metadata>
  <g
     id="g995"
     data-name="圖層 4"
     inkscape:export-filename="C:\Users\Jesse\Documents\PygameCourse\GameFramework\TankMan\asset\image\logo.png"
     inkscape:export-xdpi="96"
     inkscape:export-ydpi="96">
    <polygon
       class="cls-4"
       points="91.59 65.12 116.83 54.19 102.88 76.94 119.26 81.25 107.65 87.53 112.66 99.3 96.35 102 91.41 114.88 82.77 103.23 67.51 122.12 74.65 99.71 40.41 94.7 65.47 81.71 60.38 68.69 69.53 67.41 76.54 50.47 91.59 65.12"
       id="polygon889" />
    <path
       class="cls-2"
       d="M97,88.38l3.45,3.86s-8.23,7.74-8.24,7.91L88.7,96.28l-3.61-4s-3.74-4.67.31-8.56,7.67.32,7.67.32L97,88.36,88.7,96.28"
       id="path891" />
    <path
       class="cls-2"
       d="M72.1,78l-3.43-3.87s8.26-7.71,8.27-7.88l3.45,3.88,3.6,4s3.72,4.69-.36,8.56S76,82.39,76,82.39L72.08,78l8.31-7.89"
       id="path893" />
    <rect
       class="cls-5"
       x="15.21"
       y="21.95"
       width="13.7"
       height="67.04"
       transform="translate(-31.07 28.25) rotate(-41.19)"
       id="rect895" />
    <rect
       class="cls-5"
       x="54.6"
       y="-13.48"
       width="14.71"
       height="67.48"
       transform="translate(1.98 45.81) rotate(-41.19)"
       id="rect897" />
    <polygon
       class="cls-6"
       points="76.95 48.7 65.99 58.3 67.24 59.73 59.29 66.69 58.03 65.25 47.77 74.23 5.28 25.76 13.56 18.52 14.83 19.93 27.68 8.68 26.45 7.24 34.46 0.23 76.95 48.7"
       id="polygon899" />
    <polygon
       class="cls-7"
       points="34.18 12.32 17.47 27.06 34.24 46.08 38.47 42.35 59.37 66.04 66.47 59.77 45.58 36.08 50.95 31.33 34.18 12.32"
       id="polygon901" />
    <path
       class="cls-8"
       d="M48.67-9.3c-.19-.09-4.82-2.32-8.28.7L36.51-5.2l-.1.1a7,7,0,0,0-1.74,3.67.68.68,0,0,0,0,.2,3.06,3.06,0,0,0-2.5.69C30.28,1,25.22,5.55,25,5.75a1.45,1.45,0,0,0-.14,2L26.24,9.4l-10.5,9.18-1.28-1.45A1.46,1.46,0,0,0,12.41,17L6,22.64a6.24,6.24,0,0,0-1.17,1.48,4.32,4.32,0,0,0-.38,1,.76.76,0,0,0-.16,0A7,7,0,0,0,.39,26.33l-.12.1-3.88,3.39,0,0c-3.43,3-1.83,7.88-1.76,8.09a1.33,1.33,0,0,0,.28.49L34.71,83.85c1.42,1.67,4.47,4,6.91,2.08,1.2-.94,2.59-2.12,3.85-3.23,2-1.79,3.72-3.39,3.84-3.5a1.35,1.35,0,0,0,.26-.32c.19-.33,1.64-2.94.88-5.21L58,67l.76.86a1.46,1.46,0,0,0,2.05.14l7.55-6.61h0a1.45,1.45,0,0,0,.15-2l-.7-.84c5.47-4.79,7.82-6.86,8.84-7.87,2.17,1.12,5,0,5.37-.16a1.41,1.41,0,0,0,.35-.21c.14-.11,2.44-2,4.79-4,1-.9,2-1.83,2.9-2.68,2.21-2.17.31-5.49-1.14-7.1L49.12-8.95A1.52,1.52,0,0,0,48.67-9.3ZM29.81,34.82l6.55,7.47-2.1,1.84-11-12.55,4.23-3.69.05,0h0l0,0,5.79-5.06h0l4.62-4L49,31.22l-2.83,2.47L39.45,26c-1.52-1.6-5.37-3.78-9-.58l0,0C26.79,28.64,28.39,32.91,29.81,34.82ZM34,14.14l2.12,2.37-3.54,3.1-2.1-2.39Zm-3.61,7.38L26.7,24.73l-2.1-2.37,3.68-3.23Zm-8,2.76,2.1,2.36L21.35,29.4,19.27,27ZM48.1,35.88,52,32.45h0a1.45,1.45,0,0,0,.49-1,1.5,1.5,0,0,0-.36-1.05L39.25,15.68h0l-4.05-4.54a1.45,1.45,0,0,0-2-.12L18.9,23.49c-3.36,3-3.36,3-3,3.88a1.36,1.36,0,0,0,.29.49L33,47.13a1.45,1.45,0,0,0,2,.14l3.19-2.8L53.74,62.12l-5.65,4.94a2.33,2.33,0,0,1-.78-.62l-34.22-39-.16-.16a1.45,1.45,0,0,0-.34-.48c-.37-.34-.58-.66-.56-.87s.39-.6.56-.72l.19-.14L33,7.34a1.12,1.12,0,0,1,1.71-.06l35,39.95a.93.93,0,0,1,.29.53.6.6,0,0,1-.23.33l0,0a11.28,11.28,0,0,0-1.3,1l-5,4.3ZM7.32,26.05c-.34-.38.55-1.22.55-1.22l5.36-4.7.32.37-2.61,2.29a4.08,4.08,0,0,0-1.8,2.83,3.87,3.87,0,0,0,1.48,3.27l.05.05a1.47,1.47,0,0,0,.24.37l34.18,39c1.13,1.41,3.1,2.35,4.81,1l5.75-5,.48.54-7.68,6.73c-.28.2-1.83-.69-3.06-2.09Zm39.83,51.2c-.83.78-4.62,4.29-7.32,6.39-.58.45-2.2-.85-2.92-1.69L-2.71,36.75c-.2-.79-.65-3.28,1-4.74h0l3.81-3.33A4,4,0,0,1,4.17,28,1.4,1.4,0,0,0,5,27.74a1.5,1.5,0,0,0,.15.23L43.2,71.39c.48.54,2.33,2.53,4.39,3C48.06,75,47.53,76.51,47.15,77.25ZM60,64.89,59.27,64l-2.39-2.73L32.07,33c-.23-.32-2.16-3.17.26-5.37a3.5,3.5,0,0,1,5,.35l25,28.47h0l3.14,3.73Zm6-8.55-.56-.66,6.06-5.23.24-.19a3.3,3.3,0,0,0,.19-4.94l-35-40a4,4,0,0,0-5.81-.21L28.42,7.48,28,7c1.61-1.44,4.68-4.17,6-5.25,0,0,.13-.1.17-.09a2.23,2.23,0,0,1,1,.91l.15.2L73.69,46.5A8,8,0,0,1,75,48.35l-.06.07C74.32,49,69.49,53.25,66,56.34ZM86.79,38.42c.72.81,1.8,2.59,1.28,3.1-2.45,2.4-6.44,5.69-7.32,6.41-.8.29-2.23.55-2.85.09a8,8,0,0,0-2-3.43L37.58.91A6.18,6.18,0,0,0,36.8,0a1.43,1.43,0,0,0,.76-1.1,4.13,4.13,0,0,1,.93-1.94L42.3-6.41c1.67-1.46,4.1-.68,4.85-.38Z"
       id="path903" />
    <path
       class="cls-9"
       d="M1.38,38.35l5.79-5.07h0A1.45,1.45,0,1,0,5.26,31.1L-.53,36.16h0a1.44,1.44,0,0,0-.13,2A1.45,1.45,0,0,0,1.38,38.35Z"
       id="path905" />
    <path
       class="cls-9"
       d="M5.37,42.89l5.53-4.84h0A1.45,1.45,0,0,0,9,35.86L3.46,40.71h0a1.45,1.45,0,0,0,1.92,2.18Z"
       id="path907" />
    <path
       class="cls-9"
       d="M9.36,47.45l5.72-5h0a1.44,1.44,0,0,0,.13-2,1.46,1.46,0,0,0-2.05-.14l-5.72,5h0a1.46,1.46,0,0,0,1.92,2.19Z"
       id="path909" />
    <path
       class="cls-9"
       d="M13.26,52.06l6-5.22h0a1.45,1.45,0,0,0-1.92-2.18l-6,5.23h0a1.45,1.45,0,0,0,1.92,2.18Z"
       id="path911" />
    <path
       class="cls-9"
       d="M21.45,49.3l-5.78,5.06h0a1.44,1.44,0,0,0-.13,2,1.46,1.46,0,0,0,2,.14l5.78-5.07h0a1.45,1.45,0,0,0-1.92-2.18Z"
       id="path913" />
    <path
       class="cls-9"
       d="M21.56,61.09l5.54-4.84h0a1.45,1.45,0,0,0-1.91-2.18l-5.54,4.85h0a1.45,1.45,0,1,0,1.91,2.18Z"
       id="path915" />
    <path
       class="cls-9"
       d="M25.56,65.65l5.72-5h0a1.45,1.45,0,0,0-1.91-2.19l-5.73,5a1.46,1.46,0,0,0,1.92,2.19Z"
       id="path917" />
    <path
       class="cls-9"
       d="M33.52,62.85l-6,5.23h0a1.45,1.45,0,0,0,1.92,2.18l6-5.22h0a1.45,1.45,0,1,0-1.91-2.18Z"
       id="path919" />
    <path
       class="cls-9"
       d="M37.63,68l-5.78,5.06h0a1.46,1.46,0,0,0,1.92,2.19l5.78-5.07h0A1.45,1.45,0,1,0,37.63,68Z"
       id="path921" />
    <path
       class="cls-9"
       d="M41.36,72.77l-5.53,4.84a1.45,1.45,0,0,0,1.91,2.19L43.28,75h0a1.44,1.44,0,0,0,.13-2A1.46,1.46,0,0,0,41.36,72.77Z"
       id="path923" />
    <path
       class="cls-9"
       d="M41.88,2.56,47.67-2.5h0a1.45,1.45,0,0,0,.13-2,1.45,1.45,0,0,0-2-.13L40,.38h0a1.45,1.45,0,1,0,1.91,2.18Z"
       id="path925" />
    <path
       class="cls-9"
       d="M45.87,7.11,51.4,2.26h0A1.45,1.45,0,1,0,49.49.08L44,4.92h0a1.44,1.44,0,0,0-.13,2A1.46,1.46,0,0,0,45.87,7.11Z"
       id="path927" />
    <path
       class="cls-9"
       d="M49.86,11.66l5.72-5h0a1.45,1.45,0,1,0-1.91-2.18L48,9.48h0a1.45,1.45,0,0,0,1.92,2.18Z"
       id="path929" />
    <path
       class="cls-9"
       d="M53.76,16.28l6-5.23h0a1.45,1.45,0,1,0-1.92-2.18l-6,5.22a1.47,1.47,0,0,0-.14,2.05A1.45,1.45,0,0,0,53.76,16.28Z"
       id="path931" />
    <path
       class="cls-9"
       d="M62,13.52l-5.78,5.06h0a1.45,1.45,0,1,0,1.92,2.18l5.78-5.06h0A1.45,1.45,0,1,0,62,13.52Z"
       id="path933" />
    <path
       class="cls-9"
       d="M62.06,25.31l5.53-4.85h0a1.45,1.45,0,0,0-1.92-2.18l-5.53,4.84h0a1.45,1.45,0,1,0,1.91,2.18Z"
       id="path935" />
    <path
       class="cls-9"
       d="M66.05,29.86l5.73-5h0a1.45,1.45,0,0,0-1.92-2.18l-5.72,5h0a1.45,1.45,0,0,0,1.91,2.18Z"
       id="path937" />
    <path
       class="cls-9"
       d="M70,34.48l6-5.23h0A1.45,1.45,0,0,0,74,27.07L68,32.3h0A1.45,1.45,0,0,0,70,34.48Z"
       id="path939" />
    <path
       class="cls-9"
       d="M78.13,32.22l-5.79,5.07h0a1.45,1.45,0,1,0,1.92,2.18L80,34.41h0a1.45,1.45,0,0,0-1.92-2.18Z"
       id="path941" />
    <path
       class="cls-9"
       d="M81.86,37l-5.53,4.84h0A1.46,1.46,0,0,0,78.24,44l5.53-4.85h0A1.45,1.45,0,0,0,81.86,37Z"
       id="path943" />
    <rect
       class="cls-10"
       x="140.01"
       y="79.88"
       width="13.52"
       height="66.12"
       transform="translate(-37.94 126.3) rotate(-41.72)"
       id="rect945" />
    <rect
       class="cls-10"
       x="100.49"
       y="114.75"
       width="14.51"
       height="66.57"
       transform="translate(-71.19 109.23) rotate(-41.72)"
       id="rect947" />
    <polygon
       class="cls-11"
       points="92.69 120.13 103.42 110.56 102.16 109.16 109.95 102.22 111.2 103.62 121.23 94.67 163.59 142.09 155.49 149.31 154.22 147.94 141.65 159.15 142.89 160.56 135.05 167.55 92.69 120.13"
       id="polygon949" />
    <path
       class="cls-12"
       d="M151.37,141.1l-16-17.8-3.79,3.41L109.75,102.4l-7.49,6.73,21.85,24.31-4.51,4.05,16,17.79Z"
       id="path951" />
    <path
       class="cls-13"
       d="M121.09,177.07c.2.09,4.78,2.25,8.17-.77,2.71-2.43,3.79-3.39,3.89-3.49h0a7,7,0,0,0,1.69-3.63c0-.07,0-.13,0-.19h0a3,3,0,0,0,2.45-.7c1.87-1.55,6.82-6.07,7-6.26a1.42,1.42,0,0,0,.12-2l-1.37-1.62h0l4.84-4.31,5.44-4.85h0l1.27,1.43a1.42,1.42,0,0,0,1,.48,1.47,1.47,0,0,0,1-.36l6.31-5.64h0a4.82,4.82,0,0,0,1.48-2.46l.15,0a6.93,6.93,0,0,0,3.81-1.25l.12-.1,3.78-3.38,0,0c3.36-3,1.74-7.79,1.67-8a1.49,1.49,0,0,0-.28-.49L134,85.07c-1.41-1.63-4.44-3.89-6.84-2-1.2,1-2.57,2.15-3.82,3.28-2,1.75-3.59,3.31-3.7,3.41a1.59,1.59,0,0,0-.25.33c-.19.32-1.59,2.91-.83,5.14h0l-7.42,6.63h0l-.75-.84a1.44,1.44,0,0,0-2-.11L101,107.49h0a1.43,1.43,0,0,0-.13,2l.7.82h0l-5.15,4.59c-1.87,1.69-2.92,2.65-3.51,3.25h0c-2.15-1.09-4.94,0-5.29.19a1.41,1.41,0,0,0-.35.21c-.13.11-2.4,2-4.7,4.06-1,.89-2,1.82-2.82,2.65-2.17,2.16-.27,5.42,1.18,7l39.71,44.46A1.34,1.34,0,0,0,121.09,177.07Zm15.33-16.56a1.12,1.12,0,0,1-1.69.08s-33.32-37.29-34.91-39.08a1,1,0,0,1-.3-.53.71.71,0,0,1,.23-.33l0,0a14,14,0,0,0,1.28-1l4.88-4.29h0l15.38,17.22h0l-3.82,3.41h0a1.45,1.45,0,0,0-.12,2l12.85,14.4h0l4,4.43a1.43,1.43,0,0,0,2,.1l13.93-12.44c3.29-2.95,3.3-3,3-3.88a1.46,1.46,0,0,0-.28-.46L136,121.27a1.45,1.45,0,0,0-2-.12l-3.12,2.79h0l-15.42-17.27h0l5.53-4.92a2.28,2.28,0,0,1,.78.61l34.12,38.2a.93.93,0,0,0,.14.14,1.52,1.52,0,0,0,.35.49c.37.33.58.64.56.84s-.37.6-.54.72a1.33,1.33,0,0,0-.19.14s-1.47,1.32-3.61,3.21L146,152C141.5,156,137.1,159.89,136.42,160.51Zm2.88-27.14-6.51-7.29h0l2.05-1.84h0l11,12.27h0l-4.13,3.68,0,0h0s0,0,0,0l-5.67,5.05h0l-4.52,4h0l-10.94-12.26h0l2.76-2.46h0l6.7,7.5c1.51,1.57,5.33,3.69,8.91.48s1.94-7.37.51-9.25Zm-3.92,20.44-2.1-2.31h0l3.46-3.08h0l2.08,2.32h0l-3.43,3.06Zm3.5-7.3,3.59-3.2h0l2.08,2.31h0l-3.6,3.22h0l-2.08-2.33Zm7.82-2.8-2.08-2.3h0l3.09-2.75h0l2.06,2.3h0l-3.07,2.75Zm14.87-1.9c.34.39-.52,1.22-.53,1.23l-5.24,4.68-.32-.36,2.56-2.28a4.07,4.07,0,0,0,1.75-2.81,3.84,3.84,0,0,0-1.5-3.22l0,0a1.42,1.42,0,0,0-.24-.38l-34.08-38.15c-1.13-1.38-3.07-2.28-4.75-1l-5.64,5-.47-.52,7.55-6.73h0c.31-.12,1.79.69,3,2.06C124,99.75,160.27,140.34,161.57,141.81ZM121.82,91.68h0c.82-.78,4.52-4.26,7.15-6.36.57-.45,2.19.82,2.91,1.64l39.49,44.22h0c.21.78.68,3.21-1,4.68h0c-2.32,2.06-3.45,3.08-3.73,3.33a4,4,0,0,1-2,.67,1.4,1.4,0,0,0-.81.26c-.06-.07-.09-.15-.15-.22L125.77,97.43c-.48-.53-2.36-2.51-4.38-2.94h0C121,93.82,121.46,92.4,121.82,91.68ZM109.23,104l.75.84,2.38,2.66h0l24.73,27.69c.23.31,2.21,3.13-.2,5.29h0c-2.32,2.08-4.53.08-4.91-.3L107.1,112.34h0L104,108.69h0Zm-5.78,8.49.54.63-5.93,5.22-.24.19a3.43,3.43,0,0,0-1.14,2.07,3.47,3.47,0,0,0,1,2.81l34.92,39.08a4.28,4.28,0,0,0,1.67,1.11,3.93,3.93,0,0,0,4.06-1l2.59-2.31.43.51c-1.58,1.44-4.58,4.15-5.9,5.24,0,0-.11.1-.15.09a2.28,2.28,0,0,1-1-.89,1,1,0,0,0-.15-.2L95.93,122.26a7.83,7.83,0,0,1-1.27-1.75l0-.12C95.26,119.81,100,115.57,103.45,112.49ZM83.06,130.35c-.7-.77-1.79-2.53-1.28-3,2.39-2.39,6.3-5.67,7.16-6.39h0c.8-.3,2.21-.57,2.82-.11h0a7.85,7.85,0,0,0,2,3.36L132,166.9a6.26,6.26,0,0,0,.76.92,1.39,1.39,0,0,0-.72,1.09,4,4,0,0,1-.92,1.92l-3.72,3.33c-1.64,1.46-4,.71-4.78.42h0Z"
       id="path953" />
    <path
       class="cls-14"
       d="M161.66,134.69h0l5.67-5a1.43,1.43,0,0,1,2,.12,1.45,1.45,0,0,1-.12,2l-5.67,5a1.43,1.43,0,1,1-1.9-2.13Z"
       id="path955" />
    <path
       class="cls-14"
       d="M157.93,130h0l5.41-4.82a1.43,1.43,0,0,1,1.91,2.14h0l-5.41,4.82a1.43,1.43,0,0,1-1.91-2.13Z"
       id="path957" />
    <path
       class="cls-14"
       d="M153.77,125.74h0l5.6-5a1.43,1.43,0,0,1,2,.12,1.4,1.4,0,0,1-.11,2l-5.6,5a1.43,1.43,0,0,1-1.91-2.13Z"
       id="path959" />
    <path
       class="cls-14"
       d="M149.63,121.43h0l5.86-5.21a1.43,1.43,0,0,1,1.91,2.14h0l-5.85,5.21a1.43,1.43,0,0,1-1.91-2.14Z"
       id="path961" />
    <path
       class="cls-14"
       d="M145.51,116.89h0l5.66-5a1.43,1.43,0,0,1,1.91,2.13h0L147.42,119a1.43,1.43,0,0,1-1.91-2.14Z"
       id="path963" />
    <path
       class="cls-14"
       d="M141.8,112.22h0l5.41-4.82a1.43,1.43,0,0,1,2,.11,1.44,1.44,0,0,1-.11,2h0l-5.4,4.83a1.43,1.43,0,1,1-1.91-2.14Z"
       id="path965" />
    <path
       class="cls-14"
       d="M137.63,107.92h0l5.6-5a1.43,1.43,0,0,1,2,.11,1.44,1.44,0,0,1-.11,2h0l-5.6,5a1.43,1.43,0,0,1-1.9-2.14Z"
       id="path967" />
    <path
       class="cls-14"
       d="M133.5,103.63h0l5.83-5.2a1.43,1.43,0,0,1,1.91,2.13h0l-5.83,5.2a1.43,1.43,0,1,1-1.91-2.13Z"
       id="path969" />
    <path
       class="cls-14"
       d="M129.38,98.58h0l5.66-5A1.43,1.43,0,0,1,137,95.66h0l-5.67,5.06a1.43,1.43,0,0,1-1.91-2.14Z"
       id="path971" />
    <path
       class="cls-14"
       d="M125.66,93.92h0l5.42-4.83A1.43,1.43,0,0,1,133,91.22h0l-5.42,4.84a1.43,1.43,0,0,1-1.91-2.14Z"
       id="path973" />
    <path
       class="cls-14"
       d="M122,170.37h0l5.66-5.05a1.43,1.43,0,1,1,1.91,2.13h0l-5.67,5.06a1.43,1.43,0,0,1-1.91-2.14Z"
       id="path975" />
    <path
       class="cls-14"
       d="M118.31,165.69h0l5.41-4.82a1.43,1.43,0,0,1,1.91,2.13h0l-5.41,4.83a1.43,1.43,0,0,1-1.91-2.14Z"
       id="path977" />
    <path
       class="cls-14"
       d="M114.15,161.4h0l5.6-5a1.43,1.43,0,0,1,1.91,2.13h0l-5.6,5a1.43,1.43,0,0,1-1.91-2.14Z"
       id="path979" />
    <path
       class="cls-14"
       d="M110,157.11h0l5.85-5.21a1.42,1.42,0,0,1,2,.12,1.43,1.43,0,0,1-.11,2h0l-5.84,5.21a1.43,1.43,0,1,1-1.91-2.13Z"
       id="path981" />
    <path
       class="cls-14"
       d="M105.89,152.56h0l5.67-5.05a1.43,1.43,0,0,1,1.91,2.14h0l-5.66,5.05a1.43,1.43,0,0,1-1.91-2.13Z"
       id="path983" />
    <path
       class="cls-14"
       d="M102.16,147.9h0l5.42-4.83a1.43,1.43,0,0,1,1.91,2.14h0L104.07,150a1.43,1.43,0,0,1-2-.11A1.44,1.44,0,0,1,102.16,147.9Z"
       id="path985" />
    <path
       class="cls-14"
       d="M98,143.61h0l5.6-5a1.43,1.43,0,0,1,1.91,2.13h0l-5.6,5a1.43,1.43,0,0,1-2-.11A1.44,1.44,0,0,1,98,143.61Z"
       id="path987" />
    <path
       class="cls-14"
       d="M93.86,139.3h0l5.84-5.22a1.43,1.43,0,0,1,1.91,2.14h0l-5.85,5.21a1.43,1.43,0,1,1-1.91-2.13Z"
       id="path989" />
    <path
       class="cls-14"
       d="M89.76,134.25h0l5.66-5a1.43,1.43,0,0,1,1.91,2.13h0l-5.66,5a1.43,1.43,0,0,1-1.91-2.13Z"
       id="path991" />
    <path
       class="cls-14"
       d="M86,129.59h0l5.42-4.83a1.44,1.44,0,0,1,2,.12,1.41,1.41,0,0,1-.11,2h0L88,131.72A1.43,1.43,0,1,1,86,129.59Z"
       id="path993" />
  </g>
</svg>
